# xmcd
#
# Track frame offsets:
#       150
#       16114
#       45045
#       55642
#       60577
#       74062
#       86695
#       95618
#       101940
#       109816
#       116248
#       124242
#       130800
#       138589
#       150523
#
# Disc length: 2130 seconds
#
# Revision: 0
# Processed by: cddbd v1.5.2PL0 Copyright (c) Steve Scherf et al.
# Submitted via: CD-DA_X-Tractor v0.24
#
DISCID=ce08500f
DTITLE=Evangelisches Gesangbuch - Lobt Gott getrost mit Singen 3
DYEAR=2009
DGENRE=Chorus
TTITLE0=Ja ich will euch tragen 380
TTITLE1=Von guten Mächten 637
TTITLE2=Weil ich Jesu Schäflein bin 591
TTITLE3=Verleih uns Frieden 421
TTITLE4=Komm, Herr segne uns 170
TTITLE5=Bewahre uns Gott 171
TTITLE6=Orgelstück 1
TTITLE7=Orgelstück 2
TTITLE8=Orgelstück 3
TTITLE9=Orgelstück 4
TTITLE10=Orgelstück 5
TTITLE11=Orgelstück 6
TTITLE12=Orgelstück 7
TTITLE13=Orgelstück 8
TTITLE14=Glockengeläut
EXTD=
EXTT0=
EXTT1=
EXTT2=
EXTT3=
EXTT4=
EXTT5=
EXTT6=
EXTT7=
EXTT8=
EXTT9=
EXTT10=
EXTT11=
EXTT12=
EXTT13=
EXTT14=
PLAYORDER=
